{
  "accessors": [
    {
      "bufferView": 1,
      "componentType": 5126,
      "count": 26624,
      "max": [
        3.4204699993133545,
        5.3528800010681152,
        7.3228201866149902
      ],
      "min": [
        -3.3984899520874023,
        -0.91657000780105591,
        4.6755399703979492
      ],
      "type": "VEC3"
    },
    {
      "bufferView": 1,
      "byteOffset": 319488,
      "componentType": 5126,
      "count": 26624,
      "max": [
        0.99838370084762573,
        0.99986487627029419,
        0.99997866153717041
      ],
      "min": [
        -0.99378830194473267,
        -0.99996274709701538,
        -0.99992477893829346
      ],
      "type": "VEC3"
    },
    {
      "bufferView": 0,
      "componentType": 5125,
      "count": 39936,
      "max": [
        26623
      ],
      "min": [
        0
      ],
      "type": "SCALAR"
    },
    {
      "bufferView": 1,
      "byteOffset": 638976,
      "componentType": 5126,
      "count": 53248,
      "max": [
        3.4599299430847168,
        5.36260986328125,
        7.3639698028564453
      ],
      "min": [
        -3.4377899169921875,
        -0.93862998485565186,
        4.6344799995422363
      ],
      "type": "VEC3"
    },
    {
      "bufferView": 1,
      "byteOffset": 1277952,
      "componentType": 5126,
      "count": 53248,
      "max": [
        0.99981546401977539,
        0.99999964237213135,
        0.99990522861480713
      ],
      "min": [
        -0.99969178438186646,
        -0.99982869625091553,
        -0.9999498724937439
      ],
      "type": "VEC3"
    },
    {
      "bufferView": 0,
      "byteOffset": 159744,
      "componentType": 5125,
      "count": 79872,
      "max": [
        53247
      ],
      "min": [
        0
      ],
      "type": "SCALAR"
    },
    {
      "bufferView": 1,
      "byteOffset": 1916928,
      "componentType": 5126,
      "count": 65532,
      "max": [
        3.4641499519348145,
        5.6129398345947266,
        7.3683099746704102
      ],
      "min": [
        -3.4398000240325928,
        -0.9485899806022644,
        4.6302800178527832
      ],
      "type": "VEC3"
    },
    {
      "bufferView": 1,
      "byteOffset": 2703312,
      "componentType": 5126,
      "count": 65532,
      "max": [
        0.99974465370178223,
        0.99997842311859131,
        0.99998116493225098
      ],
      "min": [
        -0.99957132339477539,
        -0.99984264373779297,
        -0.99999701976776123
      ],
      "type": "VEC3"
    },
    {
      "bufferView": 0,
      "byteOffset": 479232,
      "componentType": 5125,
      "count": 98298,
      "max": [
        65531
      ],
      "min": [
        0
      ],
      "type": "SCALAR"
    },
    {
      "bufferView": 1,
      "byteOffset": 3489696,
      "componentType": 5126,
      "count": 65532,
      "max": [
        3.3653199672698975,
        5.6191301345825195,
        7.2310500144958496
      ],
      "min": [
        -3.279059886932373,
        -1.1705399751663208,
        4.7706699371337891
      ],
      "type": "VEC3"
    },
    {
      "bufferView": 1,
      "byteOffset": 4276080,
      "componentType": 5126,
      "count": 65532,
      "max": [
        0.99998533725738525,
        0.9998670220375061,
        0.99993604421615601
      ],
      "min": [
        -0.99923533201217651,
        -0.99954831600189209,
        -0.99996703863143921
      ],
      "type": "VEC3"
    },
    {
      "bufferView": 0,
      "byteOffset": 872424,
      "componentType": 5125,
      "count": 98298,
      "max": [
        65531
      ],
      "min": [
        0
      ],
      "type": "SCALAR"
    },
    {
      "bufferView": 1,
      "byteOffset": 5062464,
      "componentType": 5126,
      "count": 2056,
      "max": [
        3.3404901027679443,
        5.318270206451416,
        7.0763697624206543
      ],
      "min": [
        -1.3839499950408936,
        -0.79714000225067139,
        4.961510181427002
      ],
      "type": "VEC3"
    },
    {
      "bufferView": 1,
      "byteOffset": 5087136,
      "componentType": 5126,
      "count": 2056,
      "max": [
        0.46660161018371582,
        0.96173602342605591,
        0.9834667444229126
      ],
      "min": [
        -0.99921882152557373,
        -0.96737664937973022,
        -0.98233342170715332
      ],
      "type": "VEC3"
    },
    {
      "bufferView": 0,
      "byteOffset": 1265616,
      "componentType": 5125,
      "count": 3084,
      "max": [
        2055
      ],
      "min": [
        0
      ],
      "type": "SCALAR"
    }
  ],
  "asset": {
    "extras": {
      "author": "William Zarek (https://sketchfab.com/bugbilly)",
      "license": "CC-BY-4.0 (http://creativecommons.org/licenses/by/4.0/)",
      "source": "https://sketchfab.com/models/a3906ec3e14741e39547c523d3160dc7",
      "title": "Mobius Strips"
    },
    "generator": "Sketchfab-3.36.3",
    "version": "2.0"
  },
  "bufferViews": [
    {
      "buffer": 0,
      "byteLength": 1277952,
      "byteOffset": 0,
      "name": "floatBufferViews",
      "target": 34963
    },
    {
      "buffer": 0,
      "byteLength": 5111808,
      "byteOffset": 1277952,
      "byteStride": 12,
      "name": "floatBufferViews",
      "target": 34962
    }
  ],
  "buffers": [
    {
      "byteLength": 6389760,
      "uri": "scene.bin"
    }
  ],
  "materials": [
    {
      "doubleSided": true,
      "emissiveFactor": [
        0,
        0,
        0
      ],
      "name": "Material",
      "pbrMetallicRoughness": {
        "baseColorFactor": [
          0.80000001190000003,
          0.80000001190000003,
          0.80000001190000003,
          1
        ],
        "metallicFactor": 0,
        "roughnessFactor": 0.59999999999999998
      }
    }
  ],
  "meshes": [
    {
      "name": "Cube_0",
      "primitives": [
        {
          "attributes": {
            "NORMAL": 1,
            "POSITION": 0
          },
          "indices": 2,
          "material": 0,
          "mode": 4
        }
      ]
    },
    {
      "name": "Cube.001_0",
      "primitives": [
        {
          "attributes": {
            "NORMAL": 4,
            "POSITION": 3
          },
          "indices": 5,
          "material": 0,
          "mode": 4
        }
      ]
    },
    {
      "name": "Cube.002_0",
      "primitives": [
        {
          "attributes": {
            "NORMAL": 7,
            "POSITION": 6
          },
          "indices": 8,
          "material": 0,
          "mode": 4
        }
      ]
    },
    {
      "name": "Cube.002_0",
      "primitives": [
        {
          "attributes": {
            "NORMAL": 10,
            "POSITION": 9
          },
          "indices": 11,
          "material": 0,
          "mode": 4
        }
      ]
    },
    {
      "name": "Cube.002_0",
      "primitives": [
        {
          "attributes": {
            "NORMAL": 13,
            "POSITION": 12
          },
          "indices": 14,
          "material": 0,
          "mode": 4
        }
      ]
    }
  ],
  "nodes": [
    {
      "children": [
        1
      ],
      "name": "RootNode (gltf orientation matrix)",
      "rotation": [
        -0.70710678118654746,
        -0,
        -0,
        0.70710678118654757
      ]
    },
    {
      "children": [
        2
      ],
      "name": "RootNode (model correction matrix)"
    },
    {
      "children": [
        3,
        5,
        7,
        9
      ],
      "name": "Root"
    },
    {
      "children": [
        4
      ],
      "matrix": [
        -0.29086000000000006,
        0.95517000000000007,
        -0.05519000000000001,
        0,
        -0.77110000000000001,
        -0.19988000000000003,
        0.60452000000000006,
        0,
        0.56639000000000006,
        0.21839000000000003,
        0.7946700000000001,
        0,
        4.0762500000000008,
        1.00545,
        5.9038600000000008,
        1
      ],
      "name": "Lamp"
    },
    {
      "name": "Lamp"
    },
    {
      "children": [
        6
      ],
      "name": "Cube"
    },
    {
      "mesh": 0,
      "name": "Cube_0"
    },
    {
      "children": [
        8
      ],
      "matrix": [
        1,
        0,
        0,
        0,
        0,
        1,
        0,
        0,
        0,
        0,
        1,
        0,
        -8.1879299999999997,
        0,
        0,
        1
      ],
      "name": "Cube.001"
    },
    {
      "mesh": 1,
      "name": "Cube.001_0"
    },
    {
      "children": [
        10,
        11,
        12
      ],
      "matrix": [
        1,
        0,
        0,
        0,
        0,
        1,
        0,
        0,
        0,
        0,
        1,
        0,
        0,
        -9.2151699999999988,
        0,
        1
      ],
      "name": "Cube.002"
    },
    {
      "mesh": 2,
      "name": "Cube.002_0"
    },
    {
      "mesh": 3,
      "name": "Cube.002_0"
    },
    {
      "mesh": 4,
      "name": "Cube.002_0"
    }
  ],
  "scene": 0,
  "scenes": [
    {
      "name": "OSG_Scene",
      "nodes": [
        0
      ]
    }
  ]
}

